<svg xmlns="http://www.w3.org/2000/svg"  viewBox="0 0 100 100" width="100px" height="100px"><path d="M60.604,92.011c-8.487,0-15.215-3.575-18.855-6.993c-3.551-1.191-7.576-1.795-11.98-1.795	c-6.991,0-12.436,1.544-12.49,1.56c-0.592,0.174-1.209,0.263-1.83,0.263c-1.604,0-3.146-0.59-4.339-1.66	c-1.668-1.496-2.456-3.794-2.057-5.998C10.39,70.009,13.76,65,17.348,61.64c-4.873-1.934-8.996-2.742-9.057-2.753	c-1.907-0.356-3.549-1.546-4.49-3.261c-0.942-1.718-1.061-3.744-0.328-5.559c3.803-9.428,13.171-13.94,21.151-16.1	c-1.17-0.94-0.931-2.419-1.537-2.834c-1.907-1.3-4.245-2.816-4.068-5.129c0.177-2.312,1.587-4.369,3.679-5.368	c7.782-3.717,15.541-5.602,23.061-5.602c18.01,0,29.512,10.715,34.725,16.461c1.416-0.199,3.359-0.446,4.731-0.446	c6.938,0,11.105,2.523,11.871,3.029C98.91,35.284,100,37.311,100,39.5c0,6.054-3.311,11.303-6.178,14.712	c0.502,3.403,0.173,7.669-0.985,12.737c-0.213,0.931-0.509,1.877-0.884,2.832c0.507,1.624,0.478,3.406-0.11,5.077	c-1.011,2.875-3.634,5.335-7.196,6.745c-0.549,0.217-1.104,0.403-1.662,0.558C78.795,88.065,70.05,92.011,60.604,92.011z" opacity=".35"/><path fill="#f2f2f2" d="M58.604,90.011c-8.487,0-15.215-3.575-18.855-6.993c-3.551-1.191-7.576-1.795-11.98-1.795	c-6.991,0-12.436,1.544-12.49,1.56c-0.592,0.174-1.209,0.263-1.83,0.263c-1.604,0-3.146-0.59-4.339-1.66	c-1.668-1.496-2.456-3.794-2.057-5.998C8.39,68.009,11.76,63,15.348,59.64c-4.873-1.934-8.996-2.742-9.057-2.753	c-1.907-0.356-3.549-1.546-4.49-3.261c-0.942-1.718-1.061-3.744-0.328-5.559c3.803-9.428,13.171-13.94,21.151-16.1	c-1.17-0.94-2.189-1.687-2.794-2.102c-1.907-1.3-2.988-3.548-2.811-5.861c0.177-2.312,1.587-4.369,3.679-5.368	c7.782-3.717,15.541-5.602,23.061-5.602c18.01,0,30.054,10.569,35.267,16.315c1.416-0.199,2.817-0.3,4.189-0.3	c6.938,0,11.105,2.523,11.871,3.029C96.91,33.284,98,35.311,98,37.5c0,6.054-3.311,11.303-6.178,14.712	c0.502,3.403,0.173,7.669-0.985,12.737c-0.213,0.931-0.509,1.877-0.884,2.832c0.507,1.624,0.478,3.406-0.11,5.077	c-1.011,2.875-3.634,5.335-7.196,6.745c-0.549,0.217-1.104,0.403-1.662,0.558C76.795,86.065,68.05,90.011,58.604,90.011z"/><path fill="#707cc0" d="M22.907,24.194c0,0,10.635,6.768,13.536,12.569c0,0-24.041-0.155-29.443,13.237	c0,0,13.006,2.233,21.757,8.959c0,0-12.93,4.119-15.519,18.411c0,0,21.51-7.518,36.226,1.545c0,0,31.052,2.685,35.213-15.516	c2.347-10.266,0.13-13.069,0.13-13.069s6.743-5.834,6.743-12.603c0,0-4.967-3.578-14.5-0.964	C77.05,36.765,56.649,8.29,22.907,24.194z"/><path fill="#fff" d="M55.692,43c10.67,0,8.45,21,14.27,21c3.88,0,9.095-12,11.035-12c2.141,0,0.816,18.619-7.614,19.679	l-19.118,1.136l-3.423-6.389C43.491,62.656,44.053,43,55.692,43z"/><path fill="#ffc7a3" d="M42,69.645C42,67.333,43.353,64,47.445,64s5.778,4.614,11.215,5.846	c3.413,0.773,11.909-1.701,15.026-0.489c2.114,0.822,3.689,2.142,3.363,4.051c-0.975,5.71-9.12,8.669-18.505,8.669	C44.548,82.077,42,72.987,42,69.645z"/><path fill="#40396e" d="M59.709,59.588c-0.646,3.298-2.159,5.708-3.379,5.383c-1.22-0.325-1.685-3.261-1.039-6.558	c0.646-3.298,2.159-5.708,3.379-5.383C59.89,53.354,60.355,56.29,59.709,59.588z"/><path fill="#fff" d="M60.825,56.294c-0.388,1.649-1.295,2.854-2.027,2.692c-0.732-0.162-1.011-1.63-0.624-3.279	c0.388-1.649,1.295-2.854,2.027-2.692C60.934,53.177,61.213,54.645,60.825,56.294z"/><path fill="#40396e" d="M72.266,62.882c-0.444,1.992-0.332,3.645,0.381,4.034c0.929,0.507,2.512-1.32,3.534-4.08	c0.873-2.356,1.05-4.62,0.506-5.551C75.289,59.38,73.749,61.592,72.266,62.882z"/><path fill="#40396e" d="M75,37c0,0,5.848,4.639,8.079,13.409L90,44l1-7l-5-1h-8L75,37z" opacity=".35"/><path fill="#ff7575" d="M49.9,70c0,0,2.715,4.859,9.1,5.334c0,0-1.108,2.666-5.397,2.666S47.884,73.442,49.9,70z"/><path fill="#40396e" d="M80.2,73.314c-2.614,1.054-5.312,0.872-6.025-0.406c-0.714-1.278,0.827-3.169,3.44-4.223	s5.312-0.872,6.025,0.406C84.354,70.37,82.814,72.26,80.2,73.314z"/><path fill="none" stroke="#40396e" stroke-linejoin="round" stroke-miterlimit="10" stroke-width="3" d="M91.5,37.5	c0,0-5.467-3.614-15-1c0,0-19.197-28.146-53-12c0,0,9.099,6.199,12,12c0,0-22.598,0.608-28,14c0,0,12.249,2.273,21,9	c0,0-12.463,2.754-15.051,17.046c0,0,15.68-4.663,29.933,0.875c2.347,2.798,8.115,6.089,15.223,6.089	c8.778,0,16.526-4.13,18.198-9.303c1.032,0.032,2.247-0.173,3.451-0.649c2.575-1.019,4.092-2.847,3.389-4.083	c-0.226-0.397-1.419-0.324-1.98-0.498C87.258,59.404,84.5,50.5,84.5,50.5S91.5,44.269,91.5,37.5z"/><path fill="#fff" d="M81.222,71.109c-1.054,0.333-2.047,0.265-2.217-0.152c-0.17-0.417,0.547-1.026,1.601-1.359	s2.047-0.265,2.217,0.152C82.993,70.168,82.276,70.776,81.222,71.109z"/><path fill="#fff" d="M77.46,56.122c-0.768,1.157-1.595,2.415-2.445,3.582c0.054,0.694,0.325,1.2,0.777,1.283	c0.732,0.135,1.64-0.869,2.027-2.243C78.156,57.552,77.989,56.474,77.46,56.122z"/><path fill="#ffc7a3" d="M49.507,28.353c-1.057,1.75-2.819,5.4-2.725,10.13c1.594-0.978,5.504-2.968,10.323-2.573	C55.683,33.629,52.987,29.965,49.507,28.353z"/><path fill="#40396e" d="M43.04,41.28c-1.384-9.687,3.946-16.303,4.174-16.58c0.501-0.61,1.319-0.864,2.078-0.646 c7.637,2.201,12.296,11.681,12.491,12.083l-3.564,1.726c-0.037-0.077-3.504-7.1-8.711-9.511c-1.218,2.017-3.377,6.556-2.546,12.367 L43.04,41.28z" opacity=".35"/><path fill="#707cc0" d="M42.022,41.042c0,0,2.758-2.895,9.476-4.594c5.996-1.516,10.284-0.31,10.284-0.31	s-0.37,3.615-0.471,3.69s-17.419,4.247-17.52,4.272s-3.514-1.694-3.514-1.694L42.022,41.042z"/></svg>